<svg width="16" height="20" fill="none" xmlns="http://www.w3.org/2000/svg"><path fill-rule="evenodd" clip-rule="evenodd" d="M3.25 5.25v-.12a4.75 4.75 0 119.5 0v.12h1.501c.571 0 1.056.419 1.14.984l.218 1.493c.43 2.938.43 5.924 0 8.862a3.135 3.135 0 01-2.779 2.664l-.629.065a40.68 40.68 0 01-8.402 0l-.629-.065A3.135 3.135 0 01.391 16.59a30.566 30.566 0 010-8.862L.61 6.234a1.151 1.151 0 011.139-.984H3.25zm3.94-3.267a3.25 3.25 0 014.06 3.147v.12h-6.5v-.12a3.25 3.25 0 012.44-3.147zM3.25 6.75V9a.75.75 0 101.5 0V6.75h6.5V9a.75.75 0 001.5 0V6.75h1.2l.175 1.194a29.098 29.098 0 010 8.428 1.635 1.635 0 01-1.45 1.39l-.629.064c-2.69.28-5.402.28-8.092 0l-.63-.065a1.635 1.635 0 01-1.449-1.39 29.067 29.067 0 010-8.427L2.05 6.75h1.2z" fill="#10B981"/></svg>